# xmcd
#
# Track frame offsets: 
#        150
#        19148
#        22923
#        44089
#        65797
#        83915
#        104786
#        123153
#        146864
#        166419
#        185084
#        186108
#        207072
#        226695
#        245742
#        264348
#
# Disc length: 3627 seconds
#
# Revision: 1
# Processed by: cddbd v1.5.2PL0 Copyright (c) Steve Scherf et al.
# Submitted via: ExactAudioCopy v0.99pb4
#
DISCID=e80e2910
DTITLE=Quindon - Quindon
DYEAR=1997
DGENRE=Blues
TTITLE0=It's You That's On My Mind
TTITLE1=When It Comes To My Music
TTITLE2=Dream About You
TTITLE3=Wrap Your Heart Around Me
TTITLE4=It's Only for You
TTITLE5=I Like
TTITLE6=Get Away
TTITLE7=Symbolization of Love
TTITLE8=I Wanna Be With You
TTITLE9=Anyway
TTITLE10=I Ain't On the Phone
TTITLE11=Can This Be Loeve
TTITLE12=Girl It's On
TTITLE13=It's You That's On My Mind (Remix feat. Smooth and Shyheim)
TTITLE14=When Doves Cry
TTITLE15=Everybody's Free (To Feel Good)
EXTD=
EXTT0=
EXTT1=
EXTT2=
EXTT3=
EXTT4=
EXTT5=
EXTT6=
EXTT7=
EXTT8=
EXTT9=
EXTT10=
EXTT11=
EXTT12=
EXTT13=
EXTT14=
EXTT15=
PLAYORDER=
